<svg width="16" height="16" viewBox="0 0 16 16" fill="none" xmlns="http://www.w3.org/2000/svg">
<path d="M13.6752 1.18519H12.1557V0.888889C12.1557 0.653141 12.0597 0.427049 11.8887 0.26035C11.7177 0.0936505 11.4859 0 11.2441 0C11.0023 0 10.7704 0.0936505 10.5994 0.26035C10.4284 0.427049 10.3324 0.653141 10.3324 0.888889V1.18519H4.8623V0.888889C4.8623 0.653141 4.76625 0.427049 4.59527 0.26035C4.4243 0.0936505 4.19241 0 3.95062 0C3.70882 0 3.47693 0.0936505 3.30596 0.26035C3.13499 0.427049 3.03894 0.653141 3.03894 0.888889V1.18519H1.51947C1.11648 1.18519 0.729997 1.34127 0.445042 1.6191C0.160086 1.89693 0 2.27375 0 2.66667V14.5185C0 14.9114 0.160086 15.2883 0.445042 15.5661C0.729997 15.8439 1.11648 16 1.51947 16H13.6752C14.0782 16 14.4647 15.8439 14.7496 15.5661C15.0346 15.2883 15.1947 14.9114 15.1947 14.5185V2.66667C15.1947 2.27375 15.0346 1.89693 14.7496 1.6191C14.4647 1.34127 14.0782 1.18519 13.6752 1.18519ZM3.03894 2.96296C3.03894 3.19871 3.13499 3.4248 3.30596 3.5915C3.47693 3.7582 3.70882 3.85185 3.95062 3.85185C4.19241 3.85185 4.4243 3.7582 4.59527 3.5915C4.76625 3.4248 4.8623 3.19871 4.8623 2.96296H10.3324C10.3324 3.19871 10.4284 3.4248 10.5994 3.5915C10.7704 3.7582 11.0023 3.85185 11.2441 3.85185C11.4859 3.85185 11.7177 3.7582 11.8887 3.5915C12.0597 3.4248 12.1557 3.19871 12.1557 2.96296H13.3713V4.74074H1.82336V2.96296H3.03894ZM1.82336 14.2222V6.51852H13.3713V14.2222H1.82336ZM6.38176 8.2963V12.4444C6.38176 12.6802 6.28571 12.9063 6.11474 13.073C5.94377 13.2397 5.71188 13.3333 5.47008 13.3333C5.22829 13.3333 4.9964 13.2397 4.82543 13.073C4.65446 12.9063 4.5584 12.6802 4.5584 12.4444V9.72741C4.34148 9.79682 4.10573 9.78435 3.89778 9.69246C3.68983 9.60057 3.52481 9.43595 3.43535 9.23115C3.34588 9.02635 3.33849 8.79627 3.41463 8.58641C3.49076 8.37655 3.64489 8.20218 3.84653 8.09778L5.06211 7.50518C5.20081 7.43751 5.35492 7.40546 5.50987 7.41206C5.66482 7.41866 5.81548 7.46369 5.9476 7.54289C6.07972 7.6221 6.18894 7.73285 6.26491 7.86469C6.34088 7.99652 6.3811 8.14508 6.38176 8.2963ZM11.0534 10.8059L10.3248 11.5556H10.6363C10.8781 11.5556 11.11 11.6492 11.2809 11.8159C11.4519 11.9826 11.548 12.2087 11.548 12.4444C11.548 12.6802 11.4519 12.9063 11.2809 13.073C11.11 13.2397 10.8781 13.3333 10.6363 13.3333H8.20513C8.02696 13.3333 7.85272 13.2823 7.70394 13.1868C7.55515 13.0912 7.43835 12.9552 7.36795 12.7957C7.29755 12.6361 7.27666 12.4599 7.30784 12.2889C7.33902 12.1178 7.42091 11.9595 7.5434 11.8333L9.68281 9.62963C9.70986 9.58469 9.72427 9.53359 9.72459 9.48148C9.72477 9.41612 9.70277 9.35253 9.66202 9.30062C9.62127 9.24872 9.56406 9.21141 9.4993 9.19451C9.43454 9.1776 9.36586 9.18205 9.30396 9.20716C9.24207 9.23227 9.19042 9.27663 9.15707 9.33333C9.03384 9.5329 8.83519 9.67732 8.60386 9.73553C8.37253 9.79375 8.127 9.7611 7.92011 9.64461C7.71321 9.52812 7.56149 9.3371 7.49757 9.11265C7.43366 8.8882 7.46266 8.64826 7.57835 8.44444C7.81246 8.04899 8.17388 7.73992 8.60654 7.56516C9.0392 7.3904 9.51891 7.35974 9.97126 7.47791C10.4236 7.59609 10.8233 7.8565 11.1084 8.21876C11.3935 8.58102 11.548 9.02488 11.548 9.48148C11.5494 9.93231 11.3988 10.3711 11.1195 10.7304C11.099 10.7568 11.077 10.7821 11.0534 10.8059Z" fill="black"/>
</svg>
