<svg width="20" height="13" viewBox="0 0 20 13" fill="none" xmlns="http://www.w3.org/2000/svg">
<path d="M1.81818 0.5C0.809091 0.5 0 1.30909 0 2.31818V9.59091H1.81818C1.81818 10.3142 2.10552 11.0079 2.61698 11.5194C3.12844 12.0308 3.82214 12.3182 4.54545 12.3182C5.26877 12.3182 5.96247 12.0308 6.47393 11.5194C6.98539 11.0079 7.27273 10.3142 7.27273 9.59091H12.7273C12.7273 10.3142 13.0146 11.0079 13.5261 11.5194C14.0375 12.0308 14.7312 12.3182 15.4545 12.3182C16.1779 12.3182 16.8716 12.0308 17.383 11.5194C17.8945 11.0079 18.1818 10.3142 18.1818 9.59091H20V5.95455C20 4.94545 19.1909 4.13636 18.1818 4.13636L15.4545 0.5H1.81818ZM12.7273 1.86364H15L16.7818 4.13636H12.7273V1.86364ZM4.54545 8.22727C4.90711 8.22727 5.25396 8.37094 5.50969 8.62667C5.76542 8.8824 5.90909 9.22925 5.90909 9.59091C5.90909 9.95257 5.76542 10.2994 5.50969 10.5551C5.25396 10.8109 4.90711 10.9545 4.54545 10.9545C4.1838 10.9545 3.83695 10.8109 3.58122 10.5551C3.32549 10.2994 3.18182 9.95257 3.18182 9.59091C3.18182 9.22925 3.32549 8.8824 3.58122 8.62667C3.83695 8.37094 4.1838 8.22727 4.54545 8.22727ZM15.4545 8.22727C15.8162 8.22727 16.163 8.37094 16.4188 8.62667C16.6745 8.8824 16.8182 9.22925 16.8182 9.59091C16.8182 9.95257 16.6745 10.2994 16.4188 10.5551C16.163 10.8109 15.8162 10.9545 15.4545 10.9545C15.0929 10.9545 14.746 10.8109 14.4903 10.5551C14.2346 10.2994 14.0909 9.95257 14.0909 9.59091C14.0909 9.22925 14.2346 8.8824 14.4903 8.62667C14.746 8.37094 15.0929 8.22727 15.4545 8.22727Z" fill="black"/>
</svg>
