<svg width="17" height="17" viewBox="0 0 17 17" fill="none" xmlns="http://www.w3.org/2000/svg">
<path d="M12.5385 14.2642V1.86538C12.5378 1.63608 12.4464 1.41635 12.2843 1.2542C12.1221 1.09205 11.9024 1.00067 11.6731 1H1.86538C1.63608 1.00067 1.41635 1.09205 1.2542 1.2542C1.09205 1.41635 1.00067 1.63608 1 1.86538V14.5577C1.00114 14.9399 1.15346 15.3061 1.4237 15.5763C1.69394 15.8465 2.06013 15.9989 2.44231 16H14.2692" stroke="black" stroke-linejoin="round"/>
<path d="M14.2692 16C13.8102 16 13.37 15.8176 13.0454 15.4931C12.7208 15.1685 12.5385 14.7283 12.5385 14.2692V3.88461H15.1346C15.3641 3.88461 15.5842 3.97579 15.7465 4.13808C15.9088 4.30037 16 4.52048 16 4.75V14.2692C16 14.7283 15.8176 15.1685 15.4931 15.4931C15.1685 15.8176 14.7283 16 14.2692 16Z" stroke="black" stroke-linejoin="round"/>
<path d="M7.92288 3.88461H10.2306M7.92288 6.19231H10.2306M3.3075 8.5H10.2306M3.3075 10.8077H10.2306M3.3075 13.1154H10.2306" stroke="black" stroke-linecap="round" stroke-linejoin="round"/>
<path d="M5.61533 6.76922H3.30764C3.15463 6.76922 3.00788 6.70843 2.89969 6.60024C2.7915 6.49205 2.73071 6.3453 2.73071 6.19229V3.8846C2.73071 3.73159 2.7915 3.58485 2.89969 3.47666C3.00788 3.36846 3.15463 3.30768 3.30764 3.30768H5.61533C5.76834 3.30768 5.91508 3.36846 6.02327 3.47666C6.13147 3.58485 6.19225 3.73159 6.19225 3.8846V6.19229C6.19225 6.3453 6.13147 6.49205 6.02327 6.60024C5.91508 6.70843 5.76834 6.76922 5.61533 6.76922Z" fill="black"/>
</svg>
