<svg width="15" height="14" viewBox="0 0 15 14" fill="none" xmlns="http://www.w3.org/2000/svg">
<path d="M7.49964 13H14M10.6603 1.43888C10.9478 1.15787 11.3378 1 11.7444 1C12.151 1 12.541 1.15787 12.8285 1.43888C13.116 1.71989 13.2775 2.10102 13.2775 2.49842C13.2775 2.89583 13.116 3.27696 12.8285 3.55797L4.15412 12.0365C3.98229 12.2044 3.76989 12.3272 3.53659 12.3936L1.46225 12.9852C1.4001 13.0029 1.33422 13.004 1.27151 12.9883C1.20879 12.9725 1.15155 12.9407 1.10577 12.8959C1.06 12.8512 1.02737 12.7952 1.0113 12.7339C0.995231 12.6726 0.996318 12.6083 1.01445 12.5475L1.6197 10.5202C1.68775 10.2924 1.81345 10.0851 1.98517 9.91736L10.6603 1.43888Z" stroke="#94C2EC" stroke-width="2" stroke-linecap="round" stroke-linejoin="round"/>
</svg>
