<svg width="16" height="18" viewBox="0 0 16 18" fill="none" xmlns="http://www.w3.org/2000/svg">
<path d="M14.75 0.00104695H2.5C1.85713 -0.0178195 1.233 0.218939 0.764386 0.659436C0.295771 1.09993 0.0208968 1.70824 0 2.35105V14.751C0.0260894 15.5053 0.350266 16.2184 0.901421 16.7339C1.45258 17.2494 2.18571 17.5253 2.94 17.501H14.75C14.9481 17.4985 15.1374 17.4186 15.2775 17.2785C15.4176 17.1384 15.4974 16.9492 15.5 16.751V0.751047C15.4974 0.55294 15.4176 0.363676 15.2775 0.223581C15.1374 0.0834861 14.9481 0.00363692 14.75 0.00104695ZM14 16.001H2.94C2.58339 16.0258 2.23151 15.9081 1.96156 15.6738C1.69161 15.4394 1.52562 15.1076 1.5 14.751C1.52562 14.3945 1.69161 14.0627 1.96156 13.8283C2.23151 13.594 2.58339 13.4763 2.94 13.501H14V16.001ZM14 12.001H2.94C2.43656 12.0016 1.94135 12.1288 1.5 12.371V2.35105C1.5229 2.10693 1.64028 1.88143 1.8271 1.72264C2.01392 1.56384 2.25538 1.48432 2.5 1.50105H14V12.001Z" fill="black"/>
<path d="M4.5 5.75H11C11.1989 5.75 11.3897 5.67098 11.5303 5.53033C11.671 5.38968 11.75 5.19891 11.75 5C11.75 4.80109 11.671 4.61032 11.5303 4.46967C11.3897 4.32902 11.1989 4.25 11 4.25H4.5C4.30109 4.25 4.11032 4.32902 3.96967 4.46967C3.82902 4.61032 3.75 4.80109 3.75 5C3.75 5.19891 3.82902 5.38968 3.96967 5.53033C4.11032 5.67098 4.30109 5.75 4.5 5.75ZM4.5 9.25H11C11.1989 9.25 11.3897 9.17098 11.5303 9.03033C11.671 8.88968 11.75 8.69891 11.75 8.5C11.75 8.30109 11.671 8.11032 11.5303 7.96967C11.3897 7.82902 11.1989 7.75 11 7.75H4.5C4.30109 7.75 4.11032 7.82902 3.96967 7.96967C3.82902 8.11032 3.75 8.30109 3.75 8.5C3.75 8.69891 3.82902 8.88968 3.96967 9.03033C4.11032 9.17098 4.30109 9.25 4.5 9.25Z" fill="black"/>
</svg>
