<svg width="15" height="16" viewBox="0 0 15 16" fill="none" xmlns="http://www.w3.org/2000/svg">
<path d="M13.3333 1.18519H11.8519V0.888889C11.8519 0.653141 11.7582 0.427049 11.5915 0.26035C11.4248 0.0936506 11.1987 0 10.963 0C10.7272 0 10.5011 0.0936506 10.3344 0.26035C10.1677 0.427049 10.0741 0.653141 10.0741 0.888889V1.18519H4.74074V0.888889C4.74074 0.653141 4.64709 0.427049 4.48039 0.26035C4.31369 0.0936506 4.0876 0 3.85185 0C3.6161 0 3.39001 0.0936506 3.22331 0.26035C3.05661 0.427049 2.96296 0.653141 2.96296 0.888889V1.18519H1.48148C1.08857 1.18519 0.711748 1.34127 0.433916 1.6191C0.156084 1.89693 0 2.27375 0 2.66667V14.5185C0 14.9114 0.156084 15.2883 0.433916 15.5661C0.711748 15.8439 1.08857 16 1.48148 16H13.3333C13.7262 16 14.1031 15.8439 14.3809 15.5661C14.6587 15.2883 14.8148 14.9114 14.8148 14.5185V2.66667C14.8148 2.27375 14.6587 1.89693 14.3809 1.6191C14.1031 1.34127 13.7262 1.18519 13.3333 1.18519ZM2.96296 2.96296C2.96296 3.19871 3.05661 3.4248 3.22331 3.5915C3.39001 3.7582 3.6161 3.85185 3.85185 3.85185C4.0876 3.85185 4.31369 3.7582 4.48039 3.5915C4.64709 3.4248 4.74074 3.19871 4.74074 2.96296H10.0741C10.0741 3.19871 10.1677 3.4248 10.3344 3.5915C10.5011 3.7582 10.7272 3.85185 10.963 3.85185C11.1987 3.85185 11.4248 3.7582 11.5915 3.5915C11.7582 3.4248 11.8519 3.19871 11.8519 2.96296H13.037V4.74074H1.77778V2.96296H2.96296ZM1.77778 14.2222V6.51852H13.037V14.2222H1.77778ZM6.22222 8.2963V12.4444C6.22222 12.6802 6.12857 12.9063 5.96187 13.073C5.79517 13.2397 5.56908 13.3333 5.33333 13.3333C5.09759 13.3333 4.87149 13.2397 4.70479 13.073C4.53809 12.9063 4.44444 12.6802 4.44444 12.4444V9.72741C4.23294 9.79682 4.00309 9.78435 3.80034 9.69246C3.59758 9.60057 3.43669 9.43595 3.34946 9.23115C3.26224 9.02635 3.25503 8.79627 3.32926 8.58641C3.40349 8.37655 3.55377 8.20218 3.75037 8.09778L4.93556 7.50519C5.07079 7.43751 5.22105 7.40546 5.37213 7.41206C5.5232 7.41866 5.6701 7.46369 5.79891 7.54289C5.92773 7.6221 6.03421 7.73285 6.10829 7.86469C6.18236 7.99652 6.22158 8.14508 6.22222 8.2963ZM10.777 10.8059L10.0667 11.5556H10.3704C10.6061 11.5556 10.8322 11.6492 10.9989 11.8159C11.1656 11.9826 11.2593 12.2087 11.2593 12.4444C11.2593 12.6802 11.1656 12.9063 10.9989 13.073C10.8322 13.2397 10.6061 13.3333 10.3704 13.3333H8C7.82629 13.3333 7.65641 13.2823 7.51134 13.1868C7.36628 13.0912 7.25239 12.9552 7.18375 12.7957C7.11512 12.6361 7.09474 12.4599 7.12514 12.2889C7.15554 12.1178 7.23539 11.9595 7.35482 11.8333L9.44074 9.62963C9.46711 9.58469 9.48116 9.53359 9.48148 9.48148C9.48165 9.41612 9.4602 9.35253 9.42047 9.30063C9.38074 9.24872 9.32496 9.21141 9.26182 9.19451C9.19868 9.1776 9.13172 9.18205 9.07137 9.20716C9.01102 9.23227 8.96066 9.27663 8.92815 9.33333C8.808 9.5329 8.61431 9.67732 8.38876 9.73553C8.16322 9.79375 7.92383 9.7611 7.72211 9.64461C7.52039 9.52812 7.37245 9.3371 7.31014 9.11265C7.24782 8.8882 7.2761 8.64826 7.38889 8.44444C7.61716 8.04899 7.96954 7.73992 8.39138 7.56516C8.81322 7.3904 9.28094 7.35974 9.72198 7.47791C10.163 7.59609 10.5528 7.8565 10.8307 8.21876C11.1087 8.58102 11.2593 9.02488 11.2593 9.48148C11.2606 9.93231 11.1138 10.3711 10.8415 10.7304C10.8216 10.7568 10.8 10.7821 10.777 10.8059Z" fill="black"/>
</svg>
