<svg width="16" height="15" viewBox="0 0 16 15" fill="none" xmlns="http://www.w3.org/2000/svg">
<path d="M3.18255 0.0557264C3.27801 0.101626 3.35857 0.173553 3.41494 0.263226C3.47132 0.352898 3.50123 0.45667 3.50122 0.562592C3.50122 1.18493 3.73515 1.54333 4.02833 1.97971L4.05007 2.01121C4.299 2.38161 4.62592 2.86673 4.62592 3.56179C4.62592 4.10866 4.40868 4.63312 4.02199 5.01981C3.63529 5.4065 3.11083 5.62374 2.56397 5.62374C2.0171 5.62374 1.49264 5.4065 1.10595 5.01981C0.719255 4.63312 0.502014 4.10866 0.502014 3.56179C0.502014 3.28587 0.502014 2.81124 0.789188 2.19866C1.07036 1.59882 1.60497 0.909749 2.58721 0.123209C2.66999 0.0569893 2.76981 0.0155183 2.87514 0.00357849C2.98048 -0.00836133 3.08705 0.0097162 3.18255 0.0557264ZM2.56397 6.74845C3.19547 6.74953 3.81293 6.56208 4.33724 6.21009C4.53294 6.76044 4.62592 7.49225 4.62592 8.43925C4.62592 9.7229 4.45346 11.2645 4.17229 12.4957C4.03282 13.1075 3.85962 13.6721 3.65343 14.0957C3.55652 14.3068 3.42753 14.5015 3.27103 14.6731C3.11657 14.8313 2.87888 15 2.56397 15C2.24905 15 2.01136 14.8313 1.85765 14.6731C1.70115 14.5015 1.57216 14.3068 1.47526 14.0957C1.26831 13.6714 1.09511 13.1075 0.955643 12.4949C0.662909 11.1624 0.510866 9.80278 0.502014 8.4385C0.502014 7.49225 0.594989 6.76044 0.790687 6.21009C1.315 6.56208 1.93246 6.74953 2.56397 6.74845ZM5.36372 9.05558C5.72458 9.21419 6.10819 9.3149 6.50042 9.354V7.6857C6.50042 7.36568 6.56345 7.04881 6.68591 6.75315C6.80838 6.4575 6.98787 6.18887 7.21416 5.96258C7.67115 5.50558 8.29098 5.24884 8.93727 5.24884H10.6056C10.544 4.63512 10.3319 4.04606 9.98821 3.5339C9.64447 3.02175 9.17968 2.60231 8.63505 2.31279C8.09041 2.02326 7.48275 1.87259 6.86594 1.87413C6.24913 1.87568 5.64223 2.02938 5.09904 2.32162C4.98233 2.07545 4.84487 1.83966 4.68815 1.61681L4.65066 1.56133L4.51645 1.35738C5.23074 0.96229 6.03282 0.752935 6.84909 0.74853C7.66535 0.744124 8.46965 0.944809 9.18816 1.33217C9.90668 1.71952 10.5164 2.28115 10.9613 2.96549C11.4063 3.64983 11.6723 4.43497 11.7348 5.24884H13.0612C13.3812 5.24884 13.6981 5.31188 13.9937 5.43434C14.2894 5.5568 14.558 5.7363 14.7843 5.96258C15.0106 6.18887 15.1901 6.4575 15.3125 6.75315C15.435 7.04881 15.498 7.36568 15.498 7.6857V11.8096C15.498 12.1296 15.435 12.4465 15.3125 12.7421C15.1901 13.0378 15.0106 13.3064 14.7843 13.5327C14.558 13.759 14.2894 13.9385 13.9937 14.061C13.6981 14.1834 13.3812 14.2465 13.0612 14.2465H8.93727C8.29098 14.2465 7.67115 13.9897 7.21416 13.5327C6.75716 13.0757 6.50042 12.4559 6.50042 11.8096V10.4832C6.08623 10.4516 5.67777 10.3672 5.28499 10.232C5.32248 9.83462 5.34947 9.43873 5.36372 9.05558ZM13.0612 6.37355H11.692C11.5326 7.39494 11.0528 8.33926 10.3218 9.07024C9.59084 9.80122 8.64651 10.281 7.62512 10.4405V11.8096C7.62512 12.5339 8.21296 13.1218 8.93727 13.1218H13.0612C13.4092 13.1218 13.7429 12.9835 13.989 12.7374C14.2351 12.4914 14.3733 12.1576 14.3733 11.8096V7.6857C14.3733 7.33769 14.2351 7.00394 13.989 6.75786C13.7429 6.51179 13.4092 6.37355 13.0612 6.37355ZM7.62512 9.29777C8.34519 9.14992 9.00606 8.79406 9.52585 8.27427C10.0456 7.75449 10.4015 7.09362 10.5493 6.37355H8.93727C8.58927 6.37355 8.25551 6.51179 8.00944 6.75786C7.76336 7.00394 7.62512 7.33769 7.62512 7.6857V9.29777Z" fill="black"/>
</svg>
