<svg width="15" height="15" viewBox="0 0 15 15" fill="none" xmlns="http://www.w3.org/2000/svg">
<path d="M4.45312 6.5625C4.26664 6.5625 4.0878 6.63658 3.95594 6.76844C3.82408 6.9003 3.75 7.07914 3.75 7.26562C3.75 7.45211 3.82408 7.63095 3.95594 7.76281C4.0878 7.89467 4.26664 7.96875 4.45312 7.96875H8.67188C8.85836 7.96875 9.0372 7.89467 9.16906 7.76281C9.30092 7.63095 9.375 7.45211 9.375 7.26562C9.375 7.07914 9.30092 6.9003 9.16906 6.76844C9.0372 6.63658 8.85836 6.5625 8.67188 6.5625H4.45312ZM4.6875 4.45312C4.6875 4.26664 4.76158 4.0878 4.89344 3.95594C5.0253 3.82408 5.20414 3.75 5.39062 3.75H10.5469C10.7334 3.75 10.9122 3.82408 11.0441 3.95594C11.1759 4.0878 11.25 4.26664 11.25 4.45312C11.25 4.63961 11.1759 4.81845 11.0441 4.95031C10.9122 5.08217 10.7334 5.15625 10.5469 5.15625H5.39062C5.20414 5.15625 5.0253 5.08217 4.89344 4.95031C4.76158 4.81845 4.6875 4.63961 4.6875 4.45312ZM6.32812 9.375C6.14164 9.375 5.9628 9.44908 5.83094 9.58094C5.69908 9.7128 5.625 9.89164 5.625 10.0781C5.625 10.2646 5.69908 10.4434 5.83094 10.5753C5.9628 10.7072 6.14164 10.7812 6.32812 10.7812H10.5469C10.7334 10.7812 10.9122 10.7072 11.0441 10.5753C11.1759 10.4434 11.25 10.2646 11.25 10.0781C11.25 9.89164 11.1759 9.7128 11.0441 9.58094C10.9122 9.44908 10.7334 9.375 10.5469 9.375H6.32812Z" fill="black"/>
<path d="M0 1.64062C0 0.735 0.735 0 1.64062 0H13.3594C14.265 0 15 0.735 15 1.64062V13.3594C15 13.7945 14.8271 14.2118 14.5195 14.5195C14.2118 14.8271 13.7945 15 13.3594 15H1.64062C1.2055 15 0.788205 14.8271 0.480528 14.5195C0.172851 14.2118 0 13.7945 0 13.3594L0 1.64062ZM1.64062 1.40625C1.57846 1.40625 1.51885 1.43094 1.4749 1.4749C1.43094 1.51885 1.40625 1.57846 1.40625 1.64062V13.3594C1.40625 13.4888 1.51125 13.5938 1.64062 13.5938H13.3594C13.4215 13.5938 13.4811 13.5691 13.5251 13.5251C13.5691 13.4811 13.5938 13.4215 13.5938 13.3594V1.64062C13.5938 1.57846 13.5691 1.51885 13.5251 1.4749C13.4811 1.43094 13.4215 1.40625 13.3594 1.40625H1.64062Z" fill="black"/>
</svg>
