<svg width="16" height="15" viewBox="0 0 16 15" fill="none" xmlns="http://www.w3.org/2000/svg">
<path d="M0 1.57895C0 1.16018 0.166353 0.758573 0.462463 0.462463C0.758573 0.166353 1.16018 0 1.57895 0H14.2105C14.6293 0 15.0309 0.166353 15.327 0.462463C15.6231 0.758573 15.7895 1.16018 15.7895 1.57895V10.2632C15.7895 10.6819 15.6231 11.0835 15.327 11.3796C15.0309 11.6758 14.6293 11.8421 14.2105 11.8421H8.68421V13.4211H11.0526C11.262 13.4211 11.4628 13.5042 11.6109 13.6523C11.7589 13.8003 11.8421 14.0011 11.8421 14.2105C11.8421 14.4199 11.7589 14.6207 11.6109 14.7688C11.4628 14.9168 11.262 15 11.0526 15H4.73684C4.52746 15 4.32666 14.9168 4.1786 14.7688C4.03055 14.6207 3.94737 14.4199 3.94737 14.2105C3.94737 14.0011 4.03055 13.8003 4.1786 13.6523C4.32666 13.5042 4.52746 13.4211 4.73684 13.4211H7.10526V11.8421H1.57895C1.16018 11.8421 0.758573 11.6758 0.462463 11.3796C0.166353 11.0835 0 10.6819 0 10.2632V1.57895ZM14.2105 10.2632V1.57895H1.57895V10.2632H14.2105Z" fill="black"/>
</svg>
