<svg width="15" height="14" viewBox="0 0 15 14" fill="none" xmlns="http://www.w3.org/2000/svg">
<path d="M12 3H3V0H12V3ZM12 7.125C12.2125 7.125 12.3907 7.053 12.5347 6.909C12.6787 6.765 12.7505 6.587 12.75 6.375C12.7495 6.163 12.6775 5.985 12.534 5.841C12.3905 5.697 12.2125 5.625 12 5.625C11.7875 5.625 11.6095 5.697 11.466 5.841C11.3225 5.985 11.2505 6.163 11.25 6.375C11.2495 6.587 11.3215 6.76525 11.466 6.90975C11.6105 7.05425 11.7885 7.126 12 7.125ZM10.5 12V9H4.5V12H10.5ZM12 13.5H3V10.5H0V6C0 5.3625 0.21875 4.82825 0.65625 4.39725C1.09375 3.96625 1.625 3.7505 2.25 3.75H12.75C13.3875 3.75 13.922 3.96575 14.3535 4.39725C14.785 4.82875 15.0005 5.363 15 6V10.5H12V13.5Z" fill="black"/>
</svg>
