<svg width="12" height="15" viewBox="0 0 12 15" fill="none" xmlns="http://www.w3.org/2000/svg">
<path d="M1.5 15C1.0875 15 0.7345 14.8532 0.441 14.5597C0.1475 14.2662 0.0005 13.913 0 13.5V1.5C0 1.0875 0.147 0.7345 0.441 0.441C0.735 0.1475 1.088 0.0005 1.5 0H10.5C10.9125 0 11.2657 0.147 11.5597 0.441C11.8537 0.735 12.0005 1.088 12 1.5V13.5C12 13.9125 11.8532 14.2657 11.5597 14.5597C11.2662 14.8537 10.913 15.0005 10.5 15H1.5ZM1.5 13.5H10.5V1.5H9V6.75L7.125 5.625L5.25 6.75V1.5H1.5V13.5Z" fill="black"/>
</svg>
