<svg width="19" height="20" viewBox="0 0 19 20" fill="none" xmlns="http://www.w3.org/2000/svg">
<path d="M9.08383 9.99999C11.6776 9.99999 13.7784 7.91166 13.7784 5.33332C13.7784 2.75499 11.6776 0.666656 9.08383 0.666656C6.49005 0.666656 4.38922 2.75499 4.38922 5.33332C4.38922 7.91166 6.49005 9.99999 9.08383 9.99999ZM9.08383 12.3333C5.95017 12.3333 0.0299377 13.3967 0.0299377 16.5L1.02769 17.2438C1.70248 17.7469 2.42105 18.1884 3.17477 18.5631L3.29232 18.6215C4.46417 19.2039 5.71616 19.6087 7.00718 19.8226L7.07238 19.8334C7.74156 19.9443 8.41871 20 9.09701 20C10.421 20 11.7364 19.7877 12.9932 19.3713L14.1138 19C15.4524 18.3347 16.7286 17.5506 17.927 16.6571L18.1377 16.5C18.1377 13.3967 12.2175 12.3333 9.08383 12.3333Z" fill="black"/>
</svg>
